#!OML:ASF X:\für Bonn\!DataBase\2005_08_12_Daniel\c3d\Daniel.ASF
:FULLY-SPECIFIED
:DEGREES
93
root -6.01198 20.9039 0.326358 -23.6082 82.166 -382.062
lowerback 20.2357 0.448113 5.68098
upperback 0.185389 1.81673 -1.55356
thorax -10.9619 0.522165 -5.51447
lowerneck 4.7068 2.25365 -6.14492
upperneck 4.89311 2.83019 0.98089
head 0.628596 1.36075 1.30534
rclavicle 1.1281e-014 1.98785e-015
rhumerus 21.281 37.6001 -82.8746
rradius 87.6931
rwrist -5.6088
rhand -30.9278 29.1422
rfingers 7.12502
rthumb -4.21341 -0.795922
lclavicle 1.1281e-014 1.98785e-015
lhumerus 24.522 -33.2394 72.8408
lradius 99.7854
lwrist 16.8477
lhand -28.3921 -18.4199
lfingers 7.12502
lthumb -1.76461 11.5525
rfemur -9.93608 -1.86162 25.4535
rtibia 41.014
rfoot 16.3273 -4.86066
rtoes -14.7141
lfemur -10.7947 6.25377 -16.8275
ltibia 60.9847
lfoot 2.74851 -6.007
ltoes -13.0052
94
root -5.79995 20.8867 0.326998 -23.2766 82.3035 -381.56
lowerback 20.7224 0.356876 5.59572
upperback 0.418864 1.70846 -1.55175
thorax -10.9874 0.484258 -5.44631
lowerneck 4.56841 2.26464 -6.1131
upperneck 4.7462 2.84883 0.959715
head 0.605706 1.37099 1.29331
rclavicle -6.85807e-015 -1.78906e-014
rhumerus 20.1693 37.6158 -83.4766
rradius 86.9892
rwrist -5.29916
rhand -30.7601 29.0004
rfingers 7.12502
rthumb -4.05143 -0.940809
lclavicle -6.85807e-015 -1.78906e-014
lhumerus 22.8098 -33.3669 74.038
lradius 99.3859
lwrist 15.9911
lhand -28.5149 -18.519
lfingers 7.12502
lthumb -1.88321 11.4525
rfemur -10.6646 -2.12947 25.3402
rtibia 40.2349
rfoot 15.8788 -5.12665
rtoes -14.8463
lfemur -11.4385 6.5203 -16.804
ltibia 60.297
lfoot 2.28686 -5.939
ltoes -13.3191
95
root -5.58791 20.8589 0.327336 -23.1667 82.4394 -381.233
lowerback 21.2685 0.261359 5.56078
upperback 0.658834 1.61117 -1.54794
thorax -11.0344 0.448681 -5.40932
lowerneck 4.45856 2.2715 -6.0692
upperneck 4.58597 2.8618 0.89833
head 0.57496 1.37887 1.26593
rclavicle 1.96797e-014 -6.75868e-015
rhumerus 18.8994 37.5588 -84.1491
rradius 86.3103
rwrist -4.83947
rhand -30.4816 28.6559
rfingers 7.12502
rthumb -3.78256 -1.29031
lclavicle 1.96797e-014 -6.75868e-015
lhumerus 21.0466 -33.4007 75.2851
lradius 98.922
lwrist 15.1542
lhand -28.3007 -18.3782
lfingers 7.12502
lthumb -1.67634 11.5949
rfemur -11.323 -2.3293 25.2479
rtibia 39.4017
rfoot 15.4835 -5.27214
rtoes -15.5131
lfemur -11.9998 6.70142 -16.7818
ltibia 59.5044
lfoot 1.67556 -5.93088
ltoes -13.6854
96
root -5.37619 20.8168 0.32795 -22.8121 82.601 -380.673
lowerback 21.8044 0.181743 5.49306
upperback 0.915249 1.52871 -1.53047
thorax -11.0543 0.424454 -5.34053
lowerneck 4.21088 2.24139 -6.11049
upperneck 4.50301 2.83248 0.860164
head 0.59132 1.36314 1.26389
rclavicle -1.09332e-015 -9.93923e-015
rhumerus 17.6869 37.474 -84.6562
rradius 85.6729
rwrist -4.35461
rhand -30.138 28.0206
rfingers 7.12502
rthumb -3.45069 -1.93123
lclavicle -1.09332e-015 -9.93923e-015
lhumerus 19.4103 -33.3531 76.511
lradius 98.3296
lwrist 14.4387
lhand -27.8238 -17.9432
lfingers 7.12502
lthumb -1.21576 12.0331
rfemur -11.9851 -2.45 25.1236
rtibia 38.5431
rfoot 15.0818 -5.18492
rtoes -17.2661
lfemur -12.5365 6.8171 -16.8249
ltibia 58.5924
lfoot 1.00297 -6.03799
ltoes -13.6366
97
root -5.16515 20.7594 0.328943 -22.5693 82.7565 -380.186
lowerback 22.3847 0.0816058 5.43366
upperback 1.17542 1.42493 -1.51207
thorax -11.0949 0.389661 -5.26962
lowerneck 3.95498 2.22717 -6.12011
upperneck 4.43939 2.82711 0.808667
head 0.614855 1.35956 1.25214
rclavicle 1.33186e-014 -3.18055e-015
rhumerus 16.4158 37.5018 -85.0396
rradius 85.0731
rwrist -3.85481
rhand -29.8785 27.2514
rfingers 7.12502
rthumb -3.20008 -2.70431
lclavicle 1.33186e-014 -3.18055e-015
lhumerus 17.8907 -33.1852 77.6162
lradius 97.5055
lwrist 13.8445
lhand -27.1201 -17.2014
lfingers 7.12502
lthumb -0.536059 12.7776
rfemur -12.5733 -2.43383 25.003
rtibia 37.6608
rfoot 14.5359 -5.12968
rtoes -19.1778
lfemur -12.9857 6.88112 -16.8596
ltibia 57.5608
lfoot 0.287206 -6.24324
ltoes -13.1506
98
root -4.95183 20.691 0.330004 -22.2 82.9293 -379.547
lowerback 22.9834 -0.0154349 5.37593
upperback 1.43562 1.32607 -1.5078
thorax -11.1421 0.356967 -5.21662
lowerneck 3.68853 2.17976 -5.97541
upperneck 4.39443 2.78842 0.598378
head 0.651184 1.34075 1.16399
rclavicle -1.85864e-014 -3.97569e-016
rhumerus 15.0961 37.5083 -85.4759
rradius 84.3621
rwrist -3.32022
rhand -29.5717 26.4233
rfingers 7.12502
rthumb -2.9038 -3.5367
lclavicle -1.85864e-014 -3.97569e-016
lhumerus 16.4479 -33.0232 78.6017
lradius 96.4863
lwrist 13.4648
lhand -26.3074 -16.3401
lfingers 7.12502
lthumb 0.248874 13.6395
rfemur -13.1206 -2.34095 24.8496
rtibia 36.7627
rfoot 13.9851 -5.12159
rtoes -20.4242
lfemur -13.3496 6.85651 -16.934
ltibia 56.396
lfoot -0.533863 -6.41554
ltoes -13.2968
